<svg width="260" height="214" viewBox="0 0 260 214" fill="none" xmlns="http://www.w3.org/2000/svg">
<path d="M129.772 8.86648C125.363 13.7975 121.522 18.2545 121.238 18.8234C120.432 20.2933 120.527 22.8536 121.427 24.0864C122.139 25.1295 122.328 25.1295 132.475 25.1295C141.484 25.1295 142.906 25.0347 143.475 24.3709C144.423 23.233 144.423 1.8966 143.475 0.758666C143.048 0.237111 142.053 4.07472e-05 140.346 4.07472e-05H137.833L129.772 8.86648Z" fill="#C11515"/>
<path d="M39.5908 37.3149C27.5002 38.358 18.3493 42.483 10.8578 50.3538C5.83193 55.5693 2.89226 60.8797 1.04311 68.2289C0.0474141 72.2117 0 73.0651 0 99.3325C0 125.6 0.0474141 126.453 1.04311 130.436C2.89226 137.596 5.54745 142.574 10.3837 147.79C16.026 153.859 22.8536 157.889 31.2933 160.023C35.2287 161.066 37.1727 161.255 42.6727 161.255C52.0133 161.303 56.1857 160.117 61.6858 155.945C65.4789 153.053 67.091 153.574 67.091 157.699C67.091 160.829 65.953 167.609 64.6728 171.876C62.4444 179.368 57.9875 185.437 52.8667 187.902C44.5218 191.932 35.4183 190.415 23.5648 182.924C19.9613 180.6 18.4915 180.505 16.9268 182.355C16.3105 183.113 14.4613 185.105 12.8492 186.812C6.82763 193.212 5.45262 194.872 5.45262 195.678C5.45262 197.717 13.9397 204.307 21.3363 208.053C39.5434 217.204 61.259 214.312 74.6298 200.941C82.2161 193.402 86.673 184.062 89.7075 169.411C90.3713 166.139 90.5135 158.221 90.6558 102.367C90.798 47.6037 90.7506 38.9744 90.1342 38.4528C89.1859 37.6942 68.2289 37.6468 67.2806 38.4528C66.9013 38.7373 66.6168 39.7804 66.6168 40.7761C66.6168 42.483 65.5263 44.0951 64.3409 44.0951C64.009 44.0951 62.7763 43.3365 61.5435 42.3408C58.7461 40.2071 55.3323 38.6899 51.9184 37.9787C49.1684 37.4571 42.3882 37.0778 39.5908 37.3149ZM50.4012 59.5047C56.3754 60.3581 62.8711 65.4789 65.5263 71.3582C66.3323 73.1125 66.3797 75.2462 66.3797 99.3325V125.41L65.0996 128.16C63.4401 131.716 59.7418 135.225 55.2848 137.406C51.9184 139.066 51.4917 139.16 46.1813 139.35C39.9227 139.54 37.2201 138.923 33.3321 136.458C30.4399 134.609 26.4097 130.247 24.8924 127.259L23.7071 124.936V99.3325V73.7289L24.845 71.3582C26.4571 68.0392 32.0519 62.5866 35.4658 60.9745C39.4485 59.1254 44.3322 58.6512 50.4012 59.5047Z" fill="#C11515"/>
<path d="M121.428 39.164C120.764 39.8278 120.669 45.9442 120.669 99.617C120.669 139.919 120.811 159.691 121.143 160.307C121.617 161.16 122.234 161.208 132.191 161.208C139.777 161.208 142.906 161.066 143.333 160.639C144.139 159.833 144.139 39.7804 143.333 38.9743C142.906 38.5476 139.824 38.4054 132.475 38.4054C123.751 38.4054 122.044 38.5002 121.428 39.164Z" fill="#C11515"/>
<path d="M174.342 38.9743C173.63 39.6856 173.536 58.1771 174.247 59.2676C174.626 59.884 177.85 59.9788 197.527 60.121C213.221 60.2159 220.618 60.4055 221.045 60.7848C222.183 61.6857 221.708 63.1081 217.678 70.5996C215.497 74.6772 209.713 85.4402 204.829 94.5911C199.945 103.695 195.156 112.656 194.161 114.505C179.984 140.725 170.928 158.126 170.928 159.311C170.928 160.354 171.212 160.781 172.018 160.971C172.587 161.113 192.596 161.16 216.445 161.113L259.829 160.971L259.972 151.061C260.066 144.186 259.924 140.962 259.545 140.535C259.118 139.966 254.898 139.872 235.601 139.872C221.566 139.872 211.751 139.682 211.04 139.397C208.812 138.591 209.381 136.884 215.924 124.604C241.101 77.1901 259.64 41.9614 259.877 41.0606C260.019 40.3494 259.829 39.6856 259.355 39.164C258.644 38.4528 254.946 38.4054 216.73 38.4054C184.82 38.4054 174.768 38.5476 174.342 38.9743Z" fill="#C11515"/>
</svg>
